PathFileType	4	(X/Y/Z)	/Users/niels/Desktop/University/Third Semester/Perception and Action/Exam/Gymnastics Motion Tracking/Code for Gym Tracking/Analyzed Data/kraft_good_id2_1_Sports2D/kraft_good_id2_1_Sports2D_px_person00.trc
DataRate	CameraRate	NumFrames	NumMarkers	Units	OrigDataRate	OrigDataStartFrame	OrigNumFrames
143.44186046511626	143.44186046511626	10	22	m	143.44186046511626	96	258
Frame#	Time	Hip			RHip			RKnee			RAnkle			RBigToe			RSmallToe			RHeel			LHip			LKnee			LAnkle			LBigToe			LSmallToe			LHeel			Neck			Head			Nose			RShoulder			RElbow			RWrist			LShoulder			LElbow			LWrist		
		X1	Y1	Z1	X2	Y2	Z2	X3	Y3	Z3	X4	Y4	Z4	X5	Y5	Z5	X6	Y6	Z6	X7	Y7	Z7	X8	Y8	Z8	X9	Y9	Z9	X10	Y10	Z10	X11	Y11	Z11	X12	Y12	Z12	X13	Y13	Z13	X14	Y14	Z14	X15	Y15	Z15	X16	Y16	Z16	X17	Y17	Z17	X18	Y18	Z18	X19	Y19	Z19	X20	Y20	Z20	X21	Y21	Z21	X22	Y22	Z22
96	0.6692607003891051	0.37288216157643894	-0.38407108622575087	0.0	0.3785741040109039	-0.3880170391387078	0.0	0.40951946378331816	-0.4498780410427868	0.0	0.39057712357865204	-0.5147031315076679	0.0	0.40925880302428697	-0.5323240230112436	0.0	0.41427563470610357	-0.5314608019331482	0.0	0.3826279072568182	-0.52305454658984	0.0	0.3637055739372443	-0.3833995699610613	0.0	0.3096522607034876	-0.45686946652648186	0.0	0.24550486187843001	-0.5147944998215553	0.0	0.2569499483254444	-0.5445905058448807	0.0	0.25162545241300405	-0.543247940513247	0.0	0.2363741922746556	-0.5120104793453677	0.0	0.48258886900061404	-0.36183162811265296	0.0	0.5343231731623574	-0.33925589709072795	0.0	0.5184210053716783	-0.3607543330712568	0.0	0.4836428446775017	-0.3683763951888855	0.0	0.5299153190067121	-0.38872866347440155	0.0	0.5722091999505872	-0.4030083452478881	0.0	0.47620563119117926	-0.35663890636585643	0.0	0.513183373445681	-0.37879113265784065	0.0	0.5517505209462192	-0.39208818639422094	0.0
97	0.6762321660181583	0.380152969845529	-0.3827641856528419	0.0	0.3853181926083794	-0.38665718926415715	0.0	0.4109206929969542	-0.4472486306998082	0.0	0.38835032979404993	-0.5090214627209908	0.0	0.4065757664316713	-0.5284694667298205	0.0	0.41225929836120845	-0.5263172874456131	0.0	0.3794411879472806	-0.5161422467367753	0.0	0.3709645237451027	-0.3819079361726194	0.0	0.31366141807655523	-0.45326263379562964	0.0	0.2492022776076587	-0.508018662345562	0.0	0.25909544502070925	-0.5380387124167518	0.0	0.25387535003184397	-0.5374812648704056	0.0	0.24036953498606534	-0.5034453817046342	0.0	0.48959898339717023	-0.36452087927196497	0.0	0.5415275660466405	-0.34244861937707083	0.0	0.5250285420180562	-0.3637755710172327	0.0	0.49056846661663667	-0.3710843862230777	0.0	0.5352380102215403	-0.3930710882175256	0.0	0.5758669747008086	-0.4091330565980307	0.0	0.4835073394758539	-0.35931006039548075	0.0	0.5187400457551058	-0.38344743122165315	0.0	0.555465402808671	-0.39821613115429205	0.0
98	0.6832036316472114	0.3874311919659486	-0.38135429642926993	0.0	0.39205216497857515	-0.3851634652761968	0.0	0.4120436917582483	-0.4443066605539753	0.0	0.38589053212897395	-0.5028409938458955	0.0	0.4037304806506588	-0.5242561899970906	0.0	0.4100682746879522	-0.5206808587963305	0.0	0.3759661840678239	-0.5085634757321792	0.0	0.3782713318606254	-0.38029603520202776	0.0	0.31796200434241567	-0.44944707323677874	0.0	0.2533020672397499	-0.5008245121536111	0.0	0.26168316845542855	-0.5309759769242385	0.0	0.2565683278524708	-0.5313088339567313	0.0	0.24479441248772676	-0.49433545708574045	0.0	0.4964727530142005	-0.3671515202308283	0.0	0.5486473065098364	-0.3456298978230301	0.0	0.5315250167671478	-0.36673926094982534	0.0	0.4973647854470071	-0.3737403005973535	0.0	0.540371327060252	-0.3973691210436438	0.0	0.5792260462344982	-0.4152092164540424	0.0	0.4906830259510818	-0.36191991369555976	0.0	0.5241407456052906	-0.38805100901592177	0.0	0.5589687748064146	-0.4043334914820223	0.0
99	0.6901750972762646	0.39470886446922204	-0.3798519051175356	0.0	0.3987735940367378	-0.38354719783660574	0.0	0.41292009687023606	-0.44106247489573847	0.0	0.38325380404729603	-0.4961846917005417	0.0	0.40077591369398957	-0.5197114438953337	0.0	0.4077436803486413	-0.5145750783133103	0.0	0.37226470914277715	-0.5003365518701542	0.0	0.38561841425317533	-0.3785750076559546	0.0	0.32256591713802035	-0.4454341967545514	0.0	0.2578207461194711	-0.4932223082725713	0.0	0.2647445632859534	-0.5234113230726453	0.0	0.2597350672397088	-0.5247380011442515	0.0	0.2496624676896925	-0.48469922619995465	0.0	0.5032087950537906	-0.36972084264133687	0.0	0.5556761651670774	-0.34880138798225047	0.0	0.5379090085722626	-0.3696448528441063	0.0	0.5040281989459843	-0.37634241047510286	0.0	0.5453246542557052	-0.40161343937564087	0.0	0.5823075407193028	-0.42121640183651277	0.0	0.49773182133664123	-0.36446838868736425	0.0	0.5294026364749892	-0.3925830568704336	0.0	0.5622963093503617	-0.41042011781865306	0.0
100	0.6971465629053178	0.4019791575813048	-0.3782684028120108	0.0	0.4054803220725279	-0.38182075658535286	0.0	0.4135897578781299	-0.4375326947422523	0.0	0.38050430300429955	-0.48908716822772685	0.0	0.39777023891806396	-0.5148714420304973	0.0	0.40533102028959817	-0.5080346658005149	0.0	0.3684076912559029	-0.4914942645428339	0.0	0.3929989307176641	-0.3767570311619902	0.0	0.32748153114855233	-0.44123510980706454	0.0	0.26276903274058594	-0.4852223569710044	0.0	0.2683021935012299	-0.5153553058350003	0.0	0.2633967929137335	-0.5177766810863155	0.0	0.25497894658573045	-0.47455797353471046	0.0	0.5098079676436866	-0.3722261452293333	0.0	0.5626079581163163	-0.3519629400085451	0.0	0.544179672479212	-0.372491560713871	0.0	0.5105571612463617	-0.37888869979010886	0.0	0.5501107132561719	-0.40579532753698216	0.0	0.5851404088914877	-0.4271340654348296	0.0	0.5046545700084293	-0.3669567431398137	0.0	0.534546417184744	-0.3970267287016526	0.0	0.5654893014891116	-0.41645639116660543	0.0
101	0.704118028534371	0.40923592230899025	-0.3766161176062719	0.0	0.4121703325716919	-0.37999778769054643	0.0	0.41410110481735984	-0.43374151026701097	0.0	0.37771520160179406	-0.48159675344062775	0.0	0.3947776465070521	-0.50978323825734	0.0	0.4028810754109733	-0.5011081050216928	0.0	0.3644761723780141	-0.482086252086925	0.0	0.40040604263512475	-0.3748551962949861	0.0	0.3327134304145711	-0.43686023030670196	0.0	0.2681509422344137	-0.47683427839834236	0.0	0.272368104821708	-0.5068185376056015	0.0	0.26756354166330887	-0.5104316356137868	0.0	0.2607396277508984	-0.4639355252648188	0.0	0.5162722408078223	-0.37466454995513776	0.0	0.5694353046421271	-0.35511242631802575	0.0	0.5503356610341371	-0.3752780092104879	0.0	0.516951696174261	-0.3813766222649878	0.0	0.5547456326528926	-0.40990620490709617	0.0	0.5877619111487759	-0.4329408574216104	0.0	0.5114521073026216	-0.3693871295872734	0.0	0.5395945646102239	-0.4013663376817841	0.0	0.568591246282041	-0.42242211493752924	0.0
102	0.7110894941634242	0.4164733324194747	-0.37490816509999586	0.0	0.4188417899999978	-0.3780936155866461	0.0	0.4145115587105184	-0.4297220876620313	0.0	0.37496955765649875	-0.4737778260977055	0.0	0.39186913717011346	-0.5045073531579266	0.0	0.40045027467306615	-0.4938608664664672	0.0	0.36056228481645003	-0.47218158321744064	0.0	0.40783221633930383	-0.37288327337731736	0.0	0.33826207192876634	-0.43231851323268844	0.0	0.27396268259657564	-0.468065858855618	0.0	0.27694213166495524	-0.4978099354413457	0.0	0.27223243989227247	-0.5027061601417107	0.0	0.26692982577098606	-0.4528579255022288	0.0	0.5226038629124955	-0.3770330465648125	0.0	0.5761490662838892	-0.3582464820738485	0.0	0.5563746053288174	-0.37800258823125243	0.0	0.5232129946607511	-0.3838030819069098	0.0	0.5592487031447602	-0.4139372505995361	0.0	0.5902178194908276	-0.4386139707975919	0.0	0.5181242997667385	-0.3717621484398843	0.0	0.5445700961678396	-0.40558655206161776	0.0	0.5716448910530371	-0.42829540978090486	0.0
103	0.7180609597924773	0.4236858916533854	-0.3731580477867392	0.0	0.42549338444744683	-0.37612538198008305	0.0	0.4148881816433316	-0.4255176353487826	0.0	0.3723609780245267	-0.4657131799351114	0.0	0.38912290363679897	-0.499120483906736	0.0	0.39810025171773294	-0.4863786898267504	0.0	0.35677000896016614	-0.4618715898176846	0.0	0.4152692294111347	-0.3708552976577517	0.0	0.34412349104662854	-0.42761621831021085	0.0	0.2801912956188569	-0.4589212921369865	0.0	0.28200976615245366	-0.4883348261885045	0.0	0.27738545878678933	-0.4945975115046734	0.0	0.2735230029202109	-0.4413521896805703	0.0	0.5288052910390575	-0.3793289680449075	0.0	0.5827390305338345	-0.3613619479722388	0.0	0.5622935907049805	-0.3806645070004793	0.0	0.5293431864810588	-0.386164775327069	0.0	0.5636412996403259	-0.4178792082023542	0.0	0.5925611717298066	-0.4441297683748953	0.0	0.5246703561503414	-0.37408457915586163	0.0	0.5494960809893212	-0.4096723732995507	0.0	0.5746907918343915	-0.43405240236017795	0.0
104	0.7250324254215306	0.43086864131669794	-0.37137911298915016	0.0	0.43212476296564073	-0.37411164276708736	0.0	0.41530858911970414	-0.4211825278517596	0.0	0.36999423771096407	-0.4575063657879398	0.0	0.38662453738084834	-0.49371764030242515	0.0	0.39589715382241664	-0.47877037383890986	0.0	0.3532159263943446	-0.45127279525609504	0.0	0.42270851060754316	-0.3687849737900909	0.0	0.3502892914216543	-0.4227554540551509	0.0	0.2868130263168617	-0.44939925260216707	0.0	0.28753981045613	-0.4783930930715471	0.0	0.28298703280050763	-0.4860943377403022	0.0	0.28047891752635035	-0.4294444499567457	0.0	0.5348795168369676	-0.3815505405377163	0.0	0.5891948589898411	-0.3644570128703433	0.0	0.5680899246199101	-0.38326478626168997	0.0	0.5353451682999518	-0.3884587626016453	0.0	0.5679455837969535	-0.4217222407202952	0.0	0.5948498883916514	-0.4494663354882067	0.0	0.5310896163711247	-0.3763570416921729	0.0	0.5543955573780625	-0.4136096307530348	0.0	0.5777674625584621	-0.43966747665873135	0.0
105	0.7320038910505837	0.4380171771384907	-0.36958412940033236	0.0	0.43873636932276644	-0.37207153551657257	0.0	0.41585960431909447	-0.41678309600256397	0.0	0.36798278704685694	-0.4492816228687727	0.0	0.38446397474832134	-0.48841120119605064	0.0	0.39390796667028455	-0.4711671144281441	0.0	0.35002694719468247	-0.4405269774345653	0.0	0.4301414639774869	-0.36668536533523377	0.0	0.35674900440245594	-0.41773444568964085	0.0	0.29379474450294996	-0.43949389408099593	0.0	0.29348567469243836	-0.46797983450002095	0.0	0.28898581219367264	-0.47717683234368063	0.0	0.28774493059834905	-0.4171611493650701	0.0	0.5408301359088339	-0.3836969616270384	0.0	0.5955064779290452	-0.36753162172144815	0.0	0.5737615077983496	-0.38580668236164184	0.0	0.5412223171393676	-0.3906826707272499	0.0	0.5721843792253036	-0.42545566987468625	0.0	0.5971458735974785	-0.45460575670708286	0.0	0.5373821163356998	-0.37858135933033765	0.0	0.5592923594175092	-0.4173850758689914	0.0	0.5809143220739298	-0.4451134320584199	0.0
